<svg width="16" height="17" viewBox="0 0 16 17" fill="none" xmlns="http://www.w3.org/2000/svg">
<g clip-path="url(#clip0_24_2989)">
<path d="M7.9866 11.5665C9.45875 11.5665 10.6522 10.3731 10.6522 8.90097C10.6522 7.42882 9.45875 6.23541 7.9866 6.23541C6.51446 6.23541 5.32105 7.42882 5.32105 8.90097C5.32105 10.3731 6.51446 11.5665 7.9866 11.5665Z" stroke="#F0B100" stroke-width="1.33278" stroke-linecap="round" stroke-linejoin="round"/>
<path d="M7.98661 2.23706V3.56984" stroke="#F0B100" stroke-width="1.33278" stroke-linecap="round" stroke-linejoin="round"/>
<path d="M7.98661 14.2321V15.5648" stroke="#F0B100" stroke-width="1.33278" stroke-linecap="round" stroke-linejoin="round"/>
<path d="M3.27523 4.18958L4.21484 5.12918" stroke="#F0B100" stroke-width="1.33278" stroke-linecap="round" stroke-linejoin="round"/>
<path d="M11.7584 12.6727L12.698 13.6123" stroke="#F0B100" stroke-width="1.33278" stroke-linecap="round" stroke-linejoin="round"/>
<path d="M1.32272 8.90094H2.65549" stroke="#F0B100" stroke-width="1.33278" stroke-linecap="round" stroke-linejoin="round"/>
<path d="M13.3177 8.90094H14.6505" stroke="#F0B100" stroke-width="1.33278" stroke-linecap="round" stroke-linejoin="round"/>
<path d="M4.21484 12.6727L3.27523 13.6123" stroke="#F0B100" stroke-width="1.33278" stroke-linecap="round" stroke-linejoin="round"/>
<path d="M12.698 4.18958L11.7584 5.12918" stroke="#F0B100" stroke-width="1.33278" stroke-linecap="round" stroke-linejoin="round"/>
</g>
<defs>
<clipPath id="clip0_24_2989">
<rect width="15.9933" height="15.9933" fill="white" transform="translate(-0.0100632 0.904297)"/>
</clipPath>
</defs>
</svg>
