<svg width="16" height="17" viewBox="0 0 16 17" fill="none" xmlns="http://www.w3.org/2000/svg">
<g clip-path="url(#clip0_24_2963)">
<path d="M13.3177 9.62397C13.3177 12.9559 10.9854 14.6219 8.21318 15.5882C8.06801 15.6373 7.91033 15.635 7.7667 15.5815C4.98786 14.6219 2.65549 12.9559 2.65549 9.62397V4.95925C2.65549 4.78251 2.7257 4.61302 2.85068 4.48804C2.97565 4.36307 3.14515 4.29286 3.32188 4.29286C4.65466 4.29286 6.32063 3.4932 7.48015 2.48028C7.62133 2.35967 7.80092 2.2934 7.98661 2.2934C8.17229 2.2934 8.35189 2.35967 8.49306 2.48028C9.65924 3.49986 11.3186 4.29286 12.6513 4.29286C12.8281 4.29286 12.9976 4.36307 13.1225 4.48804C13.2475 4.61302 13.3177 4.78251 13.3177 4.95925V9.62397Z" stroke="#00C950" stroke-width="1.33278" stroke-linecap="round" stroke-linejoin="round"/>
</g>
<defs>
<clipPath id="clip0_24_2963">
<rect width="15.9933" height="15.9933" fill="white" transform="translate(-0.0100632 0.960876)"/>
</clipPath>
</defs>
</svg>
