<svg width="20" height="21" viewBox="0 0 20 21" fill="none" xmlns="http://www.w3.org/2000/svg">
<path d="M3.33199 11.8343C3.17436 11.8349 3.01981 11.7907 2.8863 11.7069C2.75279 11.6231 2.6458 11.5031 2.57776 11.3609C2.50972 11.2187 2.48342 11.0601 2.50192 10.9036C2.52042 10.7471 2.58295 10.599 2.68226 10.4766L10.9288 1.9801C10.9907 1.90869 11.075 1.86044 11.1679 1.84326C11.2608 1.82608 11.3568 1.841 11.4401 1.88556C11.5234 1.93011 11.589 2.00167 11.6263 2.08847C11.6636 2.17528 11.6702 2.27218 11.6452 2.36327L10.0459 7.37785C9.9987 7.50406 9.98286 7.63984 9.9997 7.77352C10.0165 7.90721 10.0656 8.03481 10.1426 8.14538C10.2196 8.25596 10.3222 8.34621 10.4418 8.40839C10.5613 8.47056 10.6941 8.50282 10.8289 8.50238H16.6598C16.8174 8.50184 16.9719 8.54604 17.1055 8.62984C17.239 8.71365 17.346 8.83361 17.414 8.9758C17.482 9.11799 17.5083 9.27657 17.4898 9.43311C17.4713 9.58965 17.4088 9.73773 17.3095 9.86015L9.06294 18.3566C9.00108 18.428 8.91678 18.4763 8.82388 18.4934C8.73099 18.5106 8.63501 18.4957 8.55171 18.4511C8.4684 18.4066 8.40272 18.335 8.36545 18.2482C8.32817 18.1614 8.32151 18.0645 8.34657 17.9734L9.9459 12.9589C9.99306 12.8326 10.0089 12.6969 9.99206 12.5632C9.97521 12.4295 9.92619 12.3019 9.8492 12.1913C9.77221 12.0807 9.66954 11.9905 9.55 11.9283C9.43047 11.8661 9.29763 11.8339 9.16289 11.8343H3.33199Z" stroke="#4299E1" stroke-width="1.66597" stroke-linecap="round" stroke-linejoin="round"/>
</svg>
