<svg width="16" height="17" viewBox="0 0 16 17" fill="none" xmlns="http://www.w3.org/2000/svg">
<path d="M13.9741 9.20486C13.9117 10.3618 13.5154 11.4759 12.8333 12.4125C12.1512 13.349 11.2124 14.0679 10.1304 14.4823C9.0484 14.8967 7.86953 14.9889 6.73631 14.7476C5.60308 14.5063 4.564 13.9419 3.74468 13.1227C2.92536 12.3034 2.36087 11.2644 2.11946 10.1312C1.87804 8.998 1.97004 7.81913 2.38432 6.73709C2.7986 5.65506 3.51744 4.71618 4.45392 4.03397C5.39041 3.35175 6.50446 2.9554 7.66141 2.89282C7.93129 2.87816 8.07257 3.19936 7.92929 3.42793C7.45009 4.19465 7.24489 5.10115 7.3472 5.99949C7.44951 6.89784 7.85327 7.73499 8.49261 8.37432C9.13194 9.01365 9.96909 9.41742 10.8674 9.51973C11.7658 9.62203 12.6723 9.41684 13.439 8.93763C13.6682 8.79436 13.9888 8.93497 13.9741 9.20486Z" stroke="#615FFF" stroke-width="1.33278" stroke-linecap="round" stroke-linejoin="round"/>
</svg>
