<svg width="16" height="17" viewBox="0 0 16 17" fill="none" xmlns="http://www.w3.org/2000/svg">
<g clip-path="url(#clip0_24_2950)">
<path d="M8.51972 14.0421C8.68866 14.1688 8.8853 14.2536 9.09342 14.2894C9.30155 14.3252 9.5152 14.311 9.71678 14.2481C9.91835 14.1851 10.1021 14.0751 10.2528 13.9272C10.4036 13.7793 10.517 13.5977 10.5838 13.3974C10.6505 13.197 10.6688 12.9837 10.6369 12.7749C10.6051 12.5661 10.5241 12.3679 10.4006 12.1966C10.2771 12.0253 10.1147 11.8858 9.92671 11.7895C9.73872 11.6933 9.53057 11.6431 9.31938 11.6431H1.32272" stroke="#00B8DB" stroke-width="1.33278" stroke-linecap="round" stroke-linejoin="round"/>
<path d="M11.6517 6.31202C11.8221 6.08484 12.0478 5.90498 12.3072 5.78953C12.5667 5.67408 12.8513 5.62686 13.1341 5.65236C13.417 5.67786 13.6886 5.77524 13.9232 5.93524C14.1578 6.09524 14.3476 6.31256 14.4746 6.56656C14.6016 6.82055 14.6616 7.1028 14.6488 7.38649C14.636 7.67017 14.551 7.94589 14.4017 8.18746C14.2524 8.42902 14.0438 8.62841 13.7958 8.7667C13.5478 8.90499 13.2685 8.97758 12.9845 8.97758H1.32272" stroke="#00B8DB" stroke-width="1.33278" stroke-linecap="round" stroke-linejoin="round"/>
<path d="M6.52055 3.91298C6.6895 3.78627 6.88613 3.70152 7.09426 3.66572C7.30238 3.62991 7.51603 3.64408 7.71761 3.70705C7.91918 3.77001 8.10291 3.87998 8.25365 4.02788C8.40439 4.17579 8.51782 4.3574 8.5846 4.55774C8.65138 4.75808 8.6696 4.97143 8.63775 5.1802C8.6059 5.38896 8.5249 5.58717 8.40142 5.75849C8.27794 5.92981 8.11552 6.06933 7.92754 6.16557C7.73956 6.2618 7.5314 6.31198 7.32022 6.31198H1.32272" stroke="#00B8DB" stroke-width="1.33278" stroke-linecap="round" stroke-linejoin="round"/>
</g>
<defs>
<clipPath id="clip0_24_2950">
<rect width="15.9933" height="15.9933" fill="white" transform="translate(-0.0100632 0.980896)"/>
</clipPath>
</defs>
</svg>
