<svg width="13" height="12" viewBox="0 0 13 12" fill="none" xmlns="http://www.w3.org/2000/svg">
<path d="M2.28125 7.00002C2.18663 7.00034 2.09386 6.97381 2.01372 6.92351C1.93358 6.87321 1.86936 6.8012 1.82852 6.71585C1.78768 6.6305 1.77189 6.53531 1.783 6.44135C1.7941 6.34739 1.83164 6.2585 1.89125 6.18502L6.84125 1.08502C6.87838 1.04216 6.92898 1.0132 6.98474 1.00289C7.0405 0.992575 7.09811 1.00153 7.14811 1.02827C7.19811 1.05502 7.23754 1.09797 7.25991 1.15007C7.28229 1.20218 7.28628 1.26034 7.27125 1.31502L6.31125 4.32502C6.28294 4.40078 6.27343 4.48228 6.28354 4.56252C6.29365 4.64277 6.32308 4.71936 6.36929 4.78573C6.41551 4.85211 6.47713 4.90628 6.54888 4.9436C6.62063 4.98092 6.70037 5.00028 6.78125 5.00002H10.2812C10.3759 4.9997 10.4686 5.02623 10.5488 5.07653C10.6289 5.12683 10.6931 5.19884 10.734 5.28419C10.7748 5.36954 10.7906 5.46473 10.7795 5.55869C10.7684 5.65266 10.7309 5.74154 10.6712 5.81502L5.72125 10.915C5.68412 10.9579 5.63352 10.9868 5.57776 10.9972C5.52199 11.0075 5.46438 10.9985 5.41438 10.9718C5.36438 10.945 5.32495 10.9021 5.30258 10.85C5.2802 10.7979 5.27621 10.7397 5.29125 10.685L6.25125 7.67502C6.27955 7.59926 6.28906 7.51776 6.27895 7.43752C6.26884 7.35727 6.23942 7.28068 6.1932 7.21431C6.14699 7.14793 6.08536 7.09376 6.01361 7.05644C5.94186 7.01912 5.86212 6.99976 5.78125 7.00002H2.28125Z" stroke="#00A63E" stroke-linecap="round" stroke-linejoin="round"/>
</svg>
