<svg width="25" height="25" viewBox="0 0 25 25" fill="none" xmlns="http://www.w3.org/2000/svg">
<path d="M15.1984 21.094V13.0973C15.1984 12.8322 15.0931 12.5779 14.9057 12.3905C14.7182 12.203 14.464 12.0977 14.1988 12.0977H10.2005C9.93541 12.0977 9.68116 12.203 9.4937 12.3905C9.30624 12.5779 9.20093 12.8322 9.20093 13.0973V21.094" stroke="#6A7282" stroke-width="1.99917" stroke-linecap="round" stroke-linejoin="round"/>
<path d="M3.20337 10.0985C3.2033 9.80772 3.26668 9.52039 3.38908 9.2566C3.51148 8.9928 3.68996 8.75888 3.91207 8.57116L10.9092 2.57366C11.27 2.2687 11.7272 2.10138 12.1996 2.10138C12.6721 2.10138 13.1292 2.2687 13.4901 2.57366L20.4872 8.57116C20.7093 8.75888 20.8878 8.9928 21.0102 9.2566C21.1326 9.52039 21.1959 9.80772 21.1959 10.0985V19.0948C21.1959 19.625 20.9852 20.1335 20.6103 20.5084C20.2354 20.8833 19.7269 21.0939 19.1967 21.0939H5.20254C4.67232 21.0939 4.16383 20.8833 3.78891 20.5084C3.414 20.1335 3.20337 19.625 3.20337 19.0948V10.0985Z" stroke="#6A7282" stroke-width="1.99917" stroke-linecap="round" stroke-linejoin="round"/>
</svg>
