<svg width="20" height="21" viewBox="0 0 20 21" fill="none" xmlns="http://www.w3.org/2000/svg">
<path d="M8.05585 3.7421C8.10175 3.25925 8.32602 2.81086 8.68484 2.48452C9.04367 2.15819 9.51127 1.97736 9.9963 1.97736C10.4813 1.97736 10.9489 2.15819 11.3077 2.48452C11.6666 2.81086 11.8908 3.25925 11.9367 3.7421C11.9643 4.05401 12.0667 4.35469 12.2351 4.61868C12.4035 4.88267 12.633 5.10221 12.9042 5.2587C13.1754 5.41519 13.4804 5.50403 13.7932 5.51771C14.106 5.53139 14.4176 5.46949 14.7014 5.33727C15.1422 5.13717 15.6416 5.10821 16.1025 5.25604C16.5634 5.40387 16.9528 5.7179 17.195 6.13702C17.4371 6.55614 17.5147 7.05036 17.4125 7.5235C17.3103 7.99663 17.0358 8.41483 16.6423 8.6967C16.386 8.8765 16.1769 9.11537 16.0325 9.3931C15.8881 9.67083 15.8127 9.97926 15.8127 10.2923C15.8127 10.6053 15.8881 10.9137 16.0325 11.1915C16.1769 11.4692 16.386 11.7081 16.6423 11.8879C17.0358 12.1697 17.3103 12.5879 17.4125 13.0611C17.5147 13.5342 17.4371 14.0284 17.195 14.4476C16.9528 14.8667 16.5634 15.1807 16.1025 15.3285C15.6416 15.4764 15.1422 15.4474 14.7014 15.2473C14.4176 15.1151 14.106 15.0532 13.7932 15.0669C13.4804 15.0805 13.1754 15.1694 12.9042 15.3259C12.633 15.4824 12.4035 15.7019 12.2351 15.9659C12.0667 16.2299 11.9643 16.5306 11.9367 16.8425C11.8908 17.3253 11.6666 17.7737 11.3077 18.1001C10.9489 18.4264 10.4813 18.6072 9.9963 18.6072C9.51127 18.6072 9.04367 18.4264 8.68484 18.1001C8.32602 17.7737 8.10175 17.3253 8.05585 16.8425C8.02832 16.5304 7.92599 16.2297 7.75753 15.9656C7.58908 15.7015 7.35946 15.4819 7.08812 15.3254C6.81678 15.1689 6.51172 15.0801 6.19878 15.0665C5.88583 15.0529 5.57422 15.1149 5.29034 15.2473C4.8496 15.4474 4.35017 15.4764 3.88926 15.3285C3.42834 15.1807 3.03892 14.8667 2.79678 14.4476C2.55464 14.0284 2.47711 13.5342 2.57927 13.0611C2.68143 12.5879 2.95598 12.1697 3.34948 11.8879C3.60572 11.7081 3.8149 11.4692 3.9593 11.1915C4.10371 10.9137 4.1791 10.6053 4.1791 10.2923C4.1791 9.97926 4.10371 9.67083 3.9593 9.3931C3.8149 9.11537 3.60572 8.8765 3.34948 8.6967C2.95653 8.41469 2.68247 7.99666 2.58055 7.52384C2.47864 7.05103 2.55615 6.55721 2.79803 6.13836C3.03991 5.71951 3.42888 5.40555 3.88933 5.2575C4.34979 5.10945 4.84884 5.13788 5.28951 5.33727C5.57335 5.46949 5.88488 5.53139 6.19771 5.51771C6.51055 5.50403 6.81548 5.41519 7.08671 5.2587C7.35793 5.10221 7.58746 4.88267 7.75587 4.61868C7.92427 4.35469 8.0266 4.05401 8.05419 3.7421" stroke="#4299E1" stroke-width="1.66597" stroke-linecap="round" stroke-linejoin="round"/>
<path d="M9.99588 12.7916C11.376 12.7916 12.4948 11.6728 12.4948 10.2927C12.4948 8.91252 11.376 7.7937 9.99588 7.7937C8.61574 7.7937 7.49692 8.91252 7.49692 10.2927C7.49692 11.6728 8.61574 12.7916 9.99588 12.7916Z" stroke="#4299E1" stroke-width="1.66597" stroke-linecap="round" stroke-linejoin="round"/>
</svg>
